<?xml version="1.0" encoding="UTF-8" standalone="no"?>
<!DOCTYPE svg PUBLIC "-//W3C//DTD SVG 1.1//EN" "http://www.w3.org/Graphics/SVG/1.1/DTD/svg11.dtd">
<svg xmlns="http://www.w3.org/2000/svg" version="1.1" viewBox="0.00 0.00 222.00 105.00">
<path fill="#00b3c6" d="
  M 198.67 54.71
  C 202.86 65.42 198.58 72.07 193.52 81.44
  A 1.42 1.42 0.0 0 1 192.88 82.05
  L 175.24 90.60
  A 2.96 2.94 44.2 0 1 172.72 90.63
  Q 169.02 88.94 165.37 86.83
  C 161.49 84.59 155.83 84.03 153.49 79.82
  C 149.00 71.76 145.37 64.45 149.19 55.43
  Q 150.08 53.32 148.56 55.04
  L 147.40 56.36
  Q 146.91 56.91 146.94 56.18
  Q 147.18 49.40 152.15 44.94
  A 0.31 0.31 0.0 0 0 151.90 44.40
  L 150.56 44.55
  Q 150.13 44.60 150.18 44.17
  Q 150.56 40.74 152.75 38.13
  Q 153.94 36.72 152.30 37.56
  Q 151.16 38.15 150.09 38.91
  Q 149.44 39.36 149.52 38.57
  Q 149.87 35.11 152.01 32.37
  Q 152.46 31.79 151.73 31.79
  L 150.72 31.78
  Q 150.16 31.78 149.88 31.29
  L 146.94 26.17
  Q 146.55 25.49 147.33 25.40
  L 148.51 25.25
  Q 149.01 25.19 148.91 24.70
  C 147.44 17.50 146.98 9.06 149.18 1.94
  A 1.91 1.91 0.0 0 1 151.67 0.72
  C 155.90 2.31 161.40 9.93 163.55 13.84
  Q 163.79 14.28 164.28 14.20
  Q 167.70 13.68 167.70 17.28
  A 0.46 0.46 0.0 0 0 168.26 17.73
  Q 174.00 16.39 179.75 17.70
  Q 180.29 17.82 180.29 17.26
  Q 180.31 13.72 183.70 14.19
  A 0.77 0.76 -70.8 0 0 184.48 13.81
  Q 188.77 6.22 195.68 0.93
  A 1.91 1.90 48.8 0 1 198.18 1.10
  C 201.41 4.34 199.98 15.04 199.95 18.74
  C 199.92 20.97 199.61 22.62 199.23 24.65
  Q 199.13 25.22 199.71 25.28
  L 200.61 25.38
  Q 201.25 25.44 200.98 26.02
  C 200.06 28.02 198.81 32.00 196.17 31.80
  Q 195.40 31.75 195.89 32.34
  Q 197.99 34.90 198.31 38.19
  Q 198.40 39.17 197.55 38.69
  L 195.27 37.41
  Q 193.75 36.56 194.92 37.84
  Q 197.37 40.54 197.81 44.17
  Q 197.85 44.55 197.48 44.51
  L 196.02 44.37
  A 0.35 0.35 0.0 0 0 195.71 44.94
  C 196.11 45.42 196.83 45.85 197.19 46.26
  Q 200.75 50.25 201.00 55.98
  A 0.37 0.37 0.0 0 1 200.30 56.16
  Q 199.87 55.28 198.99 54.49
  Q 198.36 53.92 198.67 54.71
  Z
  M 157.45 16.71
  Q 156.99 16.31 156.38 16.18
  Q 155.77 16.06 155.77 16.69
  Q 155.74 20.53 157.25 24.06
  A 0.40 0.40 0.0 0 0 157.94 24.13
  Q 159.61 21.71 162.49 21.24
  Q 163.20 21.13 162.65 20.66
  C 161.54 19.72 161.00 19.14 160.47 17.68
  C 159.40 14.72 156.34 9.21 153.26 7.92
  A 0.73 0.72 -75.0 0 0 152.26 8.50
  C 151.69 12.98 149.96 24.08 154.62 26.73
  Q 155.48 27.22 155.05 26.33
  C 154.33 24.85 152.38 22.16 152.40 20.59
  Q 152.41 19.99 152.93 20.30
  Q 153.07 20.39 153.24 20.36
  Q 153.51 20.31 153.53 20.04
  L 154.03 13.31
  A 0.69 0.69 0.0 0 1 155.12 12.80
  Q 157.07 14.20 157.82 16.47
  Q 158.08 17.27 157.45 16.71
  Z
  M 190.29 16.22
  Q 191.07 13.87 193.26 12.79
  A 0.61 0.60 75.1 0 1 194.13 13.30
  L 194.52 20.05
  A 0.36 0.35 80.1 0 0 194.97 20.37
  L 195.51 20.21
  A 0.14 0.14 0.0 0 1 195.68 20.39
  Q 194.75 23.69 192.80 26.49
  Q 192.28 27.24 193.11 26.87
  C 198.08 24.68 196.40 12.80 195.71 8.39
  A 0.72 0.72 0.0 0 0 194.56 7.94
  Q 192.25 9.76 190.42 12.22
  C 188.66 14.60 187.95 18.26 185.17 20.87
  Q 184.83 21.19 185.30 21.23
  Q 188.36 21.53 190.13 24.07
  A 0.44 0.44 0.0 0 0 190.90 23.97
  Q 192.18 20.54 192.17 16.88
  Q 192.17 15.78 191.21 16.31
  L 190.72 16.58
  Q 190.04 16.95 190.29 16.22
  Z
  M 175.16 22.71
  Q 175.58 22.30 176.21 22.18
  Q 177.84 21.86 176.36 21.12
  Q 173.63 19.75 171.16 21.43
  A 0.35 0.35 0.0 0 0 171.29 22.06
  Q 172.18 22.21 172.88 22.70
  A 0.26 0.26 0.0 0 1 172.85 23.14
  L 172.49 23.32
  Q 172.18 23.48 172.23 23.83
  Q 173.15 30.80 169.60 36.85
  C 168.25 39.14 166.43 41.47 165.66 43.80
  Q 164.22 48.11 165.12 52.70
  Q 165.63 55.25 167.93 54.17
  Q 170.36 53.03 171.96 51.20
  A 1.33 1.33 0.0 0 0 171.62 49.17
  C 170.56 48.57 169.32 48.07 168.78 46.90
  C 165.57 39.93 181.00 38.51 179.45 46.20
  C 179.13 47.78 177.64 48.60 176.30 49.30
  A 1.09 1.09 0.0 0 0 175.98 50.98
  Q 178.02 53.33 180.95 54.49
  A 1.58 1.58 0.0 0 0 183.07 53.39
  C 184.73 46.17 181.65 42.01 178.05 36.21
  C 176.87 34.31 174.61 27.22 175.91 24.03
  A 0.51 0.51 0.0 0 0 175.60 23.36
  L 175.28 23.26
  Q 174.77 23.09 175.16 22.71
  Z
  M 163.77 27.99
  C 166.50 27.38 168.61 27.71 170.62 29.66
  Q 170.96 29.99 171.09 29.53
  C 172.39 24.86 165.86 24.22 163.54 27.66
  Q 163.24 28.11 163.77 27.99
  Z
  M 177.25 29.76
  Q 180.18 26.84 184.22 28.06
  Q 184.77 28.23 184.50 27.72
  C 182.60 24.18 176.24 24.52 176.97 29.67
  A 0.17 0.16 -27.0 0 0 177.25 29.76
  Z
  M 166.32 34.19
  A 1.38 1.38 0.0 0 0 164.94 32.81
  A 1.38 1.38 0.0 0 0 163.56 34.19
  A 1.38 1.38 0.0 0 0 164.94 35.57
  A 1.38 1.38 0.0 0 0 166.32 34.19
  Z
  M 184.36 34.19
  A 1.35 1.35 0.0 0 0 183.01 32.84
  A 1.35 1.35 0.0 0 0 181.66 34.19
  A 1.35 1.35 0.0 0 0 183.01 35.54
  A 1.35 1.35 0.0 0 0 184.36 34.19
  Z
  M 180.30 78.37
  L 180.16 79.03
  Q 179.74 80.99 181.07 79.49
  Q 182.47 77.91 183.49 75.98
  Q 184.63 73.84 184.68 76.38
  Q 184.69 77.13 184.18 78.44
  A 0.63 0.62 26.8 0 0 184.44 79.21
  Q 184.83 79.45 184.66 79.92
  Q 184.42 80.60 184.93 80.09
  Q 185.30 79.72 185.33 79.17
  A 1.51 1.48 -23.7 0 1 185.68 78.30
  C 187.26 76.43 189.44 75.38 190.59 73.40
  Q 192.53 70.06 193.15 66.50
  Q 193.41 65.05 192.48 66.20
  Q 190.32 68.86 187.10 70.08
  Q 186.24 70.41 186.87 69.74
  Q 192.55 63.76 189.41 56.01
  Q 189.02 55.05 189.84 55.68
  Q 193.04 58.16 193.48 62.16
  Q 193.69 64.08 194.34 62.26
  Q 196.49 56.17 194.36 50.01
  Q 193.56 47.68 193.37 50.27
  Q 193.31 51.19 192.71 51.93
  Q 192.33 52.39 192.29 51.79
  Q 191.89 45.79 189.91 40.11
  Q 189.86 39.98 189.73 39.93
  Q 189.62 39.89 189.50 39.81
  Q 189.38 39.74 189.37 39.87
  Q 189.30 40.75 189.54 41.58
  Q 189.80 42.45 188.97 42.07
  Q 188.74 41.97 188.50 41.80
  A 0.31 0.31 0.0 0 0 188.05 42.20
  Q 189.37 44.66 189.27 47.49
  Q 189.25 47.97 188.92 47.62
  L 186.36 44.92
  Q 185.46 43.98 185.74 45.25
  C 187.27 52.18 184.86 60.50 176.67 60.14
  Q 174.38 60.04 171.81 60.16
  C 163.60 60.52 160.31 52.44 162.25 45.50
  A 0.43 0.43 0.0 0 0 161.52 45.10
  L 159.04 47.85
  Q 158.73 48.19 158.72 47.72
  Q 158.65 44.91 159.94 42.40
  A 0.35 0.35 0.0 0 0 159.43 41.94
  Q 159.12 42.15 158.74 42.21
  Q 158.27 42.29 158.40 41.83
  L 158.90 39.99
  Q 159.06 39.43 158.61 39.80
  C 156.67 41.37 155.93 49.07 155.86 51.90
  Q 155.85 52.66 155.46 52.01
  Q 154.84 51.01 154.67 49.86
  Q 154.42 48.19 153.79 49.76
  Q 151.19 56.23 153.89 62.62
  A 0.38 0.38 0.0 0 0 154.62 62.48
  C 154.65 60.36 156.05 56.72 158.25 55.71
  Q 158.84 55.44 158.59 56.05
  Q 155.39 63.84 161.17 69.70
  Q 161.95 70.48 160.92 70.09
  Q 157.59 68.83 155.44 65.98
  Q 154.72 65.03 154.87 66.21
  C 155.31 69.74 156.84 73.54 159.69 75.89
  C 160.92 76.90 162.49 78.05 162.88 79.13
  Q 163.06 79.63 163.40 79.22
  Q 163.57 79.01 163.54 78.74
  Q 163.32 77.29 163.28 76.57
  Q 163.16 74.17 164.55 76.13
  L 166.96 79.53
  Q 168.57 81.80 167.74 79.03
  Q 167.72 78.97 167.68 78.30
  Q 167.64 77.51 168.10 78.16
  C 169.62 80.31 171.58 83.26 173.81 84.72
  Q 174.35 85.07 174.76 84.57
  L 180.02 78.23
  A 0.16 0.16 0.0 0 1 180.30 78.37
  Z
  M 175.9375 42.1032
  A 0.55 0.55 0.0 0 0 175.3827 41.5580
  L 172.6228 41.5821
  A 0.55 0.55 0.0 0 0 172.0776 42.1369
  L 172.0825 42.6968
  A 0.55 0.55 0.0 0 0 172.6373 43.2420
  L 175.3972 43.2179
  A 0.55 0.55 0.0 0 0 175.9424 42.6631
  L 175.9375 42.1032
  Z
  M 169.10 55.98
  A 0.65 0.65 0.0 0 0 169.43 57.19
  L 178.47 57.19
  A 0.65 0.65 0.0 0 0 178.82 55.99
  L 174.44 53.24
  A 0.65 0.65 0.0 0 0 173.76 53.23
  L 169.10 55.98
  Z"
/>
<path fill="#00b3c6" d="
  M 22.35 41.24
  L 21.29 44.77
  A 0.33 0.33 0.0 0 1 20.97 45.01
  L 17.57 44.98
  A 0.33 0.33 0.0 0 1 17.26 44.54
  L 23.17 28.22
  A 0.33 0.33 0.0 0 1 23.48 28.00
  L 27.49 28.00
  A 0.33 0.33 0.0 0 1 27.80 28.22
  L 33.54 44.56
  A 0.33 0.33 0.0 0 1 33.22 45.00
  L 29.79 45.00
  A 0.33 0.33 0.0 0 1 29.47 44.76
  L 28.43 41.24
  A 0.33 0.33 0.0 0 0 28.11 41.00
  L 22.67 41.00
  A 0.33 0.33 0.0 0 0 22.35 41.24
  Z
  M 25.25 32.00
  L 23.39 37.46
  Q 23.20 37.99 23.77 37.99
  L 26.83 38.00
  Q 27.41 38.00 27.24 37.44
  L 25.61 32.01
  Q 25.44 31.45 25.25 32.00
  Z"
/>
<path fill="#00b3c6" d="
  M 39.16 45.00
  L 36.19 45.00
  A 0.32 0.32 0.0 0 1 35.87 44.68
  L 35.87 28.32
  A 0.32 0.32 0.0 0 1 36.19 28.00
  L 39.80 28.00
  A 0.32 0.32 0.0 0 1 40.06 28.15
  L 46.95 38.83
  A 0.32 0.32 0.0 0 0 47.54 38.66
  L 47.53 28.32
  A 0.32 0.32 0.0 0 1 47.85 28.00
  L 50.68 28.00
  A 0.32 0.32 0.0 0 1 51.00 28.32
  L 51.00 44.68
  A 0.32 0.32 0.0 0 1 50.68 45.00
  L 47.38 45.00
  A 0.32 0.32 0.0 0 1 47.12 44.85
  L 40.05 33.89
  A 0.32 0.32 0.0 0 0 39.46 34.06
  L 39.48 44.68
  A 0.32 0.32 0.0 0 1 39.16 45.00
  Z"
/>
<path fill="#00b3c6" d="
  M 58.74 31.94
  L 58.74 41.06
  Q 58.74 41.60 59.22 41.86
  Q 60.74 42.66 59.97 44.64
  Q 59.83 45.00 59.44 45.00
  L 54.27 45.00
  Q 53.78 45.00 53.61 44.54
  Q 52.90 42.57 54.47 41.89
  Q 54.88 41.71 54.88 41.27
  L 54.89 31.73
  Q 54.89 31.27 54.47 31.09
  Q 52.90 30.42 53.61 28.46
  Q 53.78 28.00 54.27 28.00
  L 59.44 28.00
  Q 59.83 28.00 59.97 28.36
  Q 60.76 30.44 59.26 31.12
  Q 58.74 31.36 58.74 31.94
  Z"
/>
<path fill="#00b3c6" d="
  M 65.76 32.53
  L 65.86 44.57
  Q 65.87 45.00 65.43 45.00
  L 62.84 44.99
  Q 62.44 44.99 62.44 44.59
  L 62.45 28.59
  Q 62.46 28.00 63.04 28.00
  L 67.50 28.00
  Q 67.96 28.00 68.10 28.43
  L 71.91 39.71
  Q 72.05 40.14 72.20 39.71
  L 75.94 28.63
  Q 76.16 28.00 76.82 28.00
  L 80.96 28.00
  Q 81.55 28.00 81.55 28.59
  L 81.56 44.65
  Q 81.56 44.99 81.22 44.99
  L 77.99 45.00
  Q 77.72 45.00 77.73 44.74
  L 77.80 33.67
  Q 77.81 31.87 77.24 33.58
  L 73.61 44.38
  A 0.92 0.91 9.3 0 1 72.74 45.00
  L 70.92 45.00
  Q 70.31 45.00 70.11 44.41
  L 66.00 32.49
  Q 65.76 31.78 65.76 32.53
  Z"
/>
<path fill="#00b3c6" d="
  M 88.82 41.24
  L 87.81 44.76
  A 0.33 0.33 0.0 0 1 87.49 45.00
  L 84.07 45.00
  A 0.33 0.33 0.0 0 1 83.76 44.56
  L 89.66 28.22
  A 0.33 0.33 0.0 0 1 89.97 28.00
  L 93.99 28.00
  A 0.33 0.33 0.0 0 1 94.30 28.22
  L 100.04 44.56
  A 0.33 0.33 0.0 0 1 99.72 45.00
  L 96.30 45.00
  A 0.33 0.33 0.0 0 1 95.98 44.76
  L 94.93 41.24
  A 0.33 0.33 0.0 0 0 94.61 41.00
  L 89.14 41.00
  A 0.33 0.33 0.0 0 0 88.82 41.24
  Z
  M 91.52 32.50
  L 89.98 37.27
  Q 89.75 38.00 90.52 38.00
  L 93.21 38.00
  A 0.55 0.55 0.0 0 0 93.73 37.29
  L 92.22 32.51
  Q 91.87 31.40 91.52 32.50
  Z"
/>
<path fill="#00b3c6" d="
  M 106.60 42.00
  L 112.03 42.00
  A 0.35 0.35 0.0 0 1 112.38 42.35
  L 112.41 44.65
  A 0.35 0.35 0.0 0 1 112.06 45.00
  L 102.80 45.00
  A 0.35 0.35 0.0 0 1 102.45 44.65
  L 102.44 28.36
  A 0.35 0.35 0.0 0 1 102.79 28.01
  L 105.91 28.00
  A 0.35 0.35 0.0 0 1 106.26 28.35
  L 106.25 41.65
  A 0.35 0.35 0.0 0 0 106.60 42.00
  Z"
/>
<path fill="#00b3c6" d="
  M 56.12 60.00
  L 62.25 60.00
  A 0.39 0.39 0.0 0 0 62.64 59.61
  L 62.61 53.39
  A 0.39 0.39 0.0 0 1 63.00 53.00
  L 66.08 53.01
  A 0.39 0.39 0.0 0 1 66.47 53.40
  L 66.48 69.61
  A 0.39 0.39 0.0 0 1 66.09 70.00
  L 63.00 70.00
  A 0.39 0.39 0.0 0 1 62.61 69.61
  L 62.65 63.40
  A 0.39 0.39 0.0 0 0 62.26 63.01
  L 56.12 62.99
  A 0.39 0.39 0.0 0 0 55.73 63.38
  L 55.76 69.60
  A 0.39 0.39 0.0 0 1 55.37 69.99
  L 52.26 70.01
  A 0.39 0.39 0.0 0 1 51.87 69.62
  L 51.87 53.39
  A 0.39 0.39 0.0 0 1 52.26 53.00
  L 55.36 53.00
  A 0.39 0.39 0.0 0 1 55.75 53.39
  L 55.73 59.61
  A 0.39 0.39 0.0 0 0 56.12 60.00
  Z"
/>
<path fill="#00b3c6" d="
  M 74.25 63.35
  L 74.25 66.64
  A 0.35 0.35 0.0 0 0 74.60 66.99
  L 80.11 67.00
  A 0.35 0.35 0.0 0 1 80.46 67.34
  L 80.52 69.64
  A 0.35 0.35 0.0 0 1 80.17 70.00
  L 70.80 70.00
  A 0.35 0.35 0.0 0 1 70.45 69.65
  L 70.45 53.35
  A 0.35 0.35 0.0 0 1 70.80 53.00
  L 79.78 53.00
  A 0.35 0.35 0.0 0 1 80.13 53.35
  L 80.12 55.65
  A 0.35 0.35 0.0 0 1 79.77 56.00
  L 74.60 56.00
  A 0.35 0.35 0.0 0 0 74.25 56.35
  L 74.25 59.64
  A 0.35 0.35 0.0 0 0 74.60 59.99
  L 79.22 60.00
  A 0.35 0.35 0.0 0 1 79.57 60.35
  L 79.58 62.65
  A 0.35 0.35 0.0 0 1 79.23 63.00
  L 74.60 63.00
  A 0.35 0.35 0.0 0 0 74.25 63.35
  Z"
/>
<path fill="#00b3c6" d="
  M 86.31 66.34
  L 85.33 69.68
  A 0.47 0.47 0.0 0 1 84.87 70.01
  L 81.77 69.97
  A 0.47 0.47 0.0 0 1 81.33 69.34
  L 87.13 53.31
  A 0.47 0.47 0.0 0 1 87.57 53.00
  L 91.40 53.00
  A 0.47 0.47 0.0 0 1 91.84 53.31
  L 97.47 69.40
  A 0.47 0.47 0.0 0 1 97.02 70.03
  L 93.85 69.93
  A 0.47 0.47 0.0 0 1 93.41 69.59
  L 92.47 66.34
  A 0.47 0.47 0.0 0 0 92.02 66.00
  L 86.76 66.00
  A 0.47 0.47 0.0 0 0 86.31 66.34
  Z
  M 89.25 57.00
  L 87.46 62.24
  A 0.57 0.57 0.0 0 0 88.00 63.00
  L 90.69 63.00
  Q 91.40 63.01 91.20 62.32
  L 89.62 57.01
  Q 89.45 56.43 89.25 57.00
  Z"
/>
<path fill="#00b3c6" d="
  M 104.14 67.00
  L 109.46 67.01
  A 0.40 0.40 0.0 0 1 109.86 67.41
  L 109.88 69.60
  A 0.40 0.40 0.0 0 1 109.48 70.00
  L 100.28 69.99
  A 0.40 0.40 0.0 0 1 99.88 69.59
  L 99.87 53.40
  A 0.40 0.40 0.0 0 1 100.27 53.00
  L 103.35 53.00
  A 0.40 0.40 0.0 0 1 103.75 53.40
  L 103.74 66.60
  A 0.40 0.40 0.0 0 0 104.14 67.00
  Z"
/>
<path fill="#00b3c6" d="
  M 119.37 56.35
  L 119.39 69.65
  A 0.35 0.35 0.0 0 1 119.04 70.00
  L 115.97 70.00
  A 0.35 0.35 0.0 0 1 115.62 69.65
  L 115.63 56.35
  A 0.35 0.35 0.0 0 0 115.28 56.00
  L 111.23 56.00
  A 0.35 0.35 0.0 0 1 110.88 55.65
  L 110.87 53.35
  A 0.35 0.35 0.0 0 1 111.22 53.00
  L 123.91 53.00
  A 0.35 0.35 0.0 0 1 124.26 53.35
  L 124.26 55.65
  A 0.35 0.35 0.0 0 1 123.91 56.00
  L 119.72 56.00
  A 0.35 0.35 0.0 0 0 119.37 56.35
  Z"
/>
<path fill="#00b3c6" d="
  M 130.25 63.32
  L 130.26 69.67
  A 0.33 0.33 0.0 0 1 129.93 70.00
  L 126.78 70.00
  A 0.33 0.33 0.0 0 1 126.45 69.67
  L 126.44 53.33
  A 0.33 0.33 0.0 0 1 126.77 53.00
  L 129.93 53.00
  A 0.33 0.33 0.0 0 1 130.26 53.33
  L 130.25 59.67
  A 0.33 0.33 0.0 0 0 130.58 60.00
  L 136.89 59.99
  A 0.33 0.33 0.0 0 0 137.22 59.66
  L 137.13 53.35
  A 0.33 0.33 0.0 0 1 137.46 53.02
  L 140.67 52.99
  A 0.33 0.33 0.0 0 1 141.00 53.32
  L 141.00 69.68
  A 0.33 0.33 0.0 0 1 140.67 70.01
  L 137.47 69.97
  A 0.33 0.33 0.0 0 1 137.14 69.64
  L 137.19 63.34
  A 0.33 0.33 0.0 0 0 136.86 63.01
  L 130.58 62.99
  A 0.33 0.33 0.0 0 0 130.25 63.32
  Z"
/>
<path fill="#00b3c6" d="
  M 176.19 71.65
  L 176.23 75.11
  A 0.39 0.39 0.0 0 1 175.84 75.50
  L 172.15 75.51
  A 0.39 0.39 0.0 0 1 171.76 75.11
  L 171.89 71.65
  A 0.39 0.39 0.0 0 0 171.49 71.24
  L 168.01 71.28
  A 0.39 0.39 0.0 0 1 167.62 70.89
  L 167.62 67.23
  A 0.39 0.39 0.0 0 1 168.03 66.84
  L 171.40 67.00
  A 0.39 0.39 0.0 0 0 171.81 66.61
  L 171.81 63.17
  A 0.39 0.39 0.0 0 1 172.20 62.78
  L 175.86 62.81
  A 0.39 0.39 0.0 0 1 176.24 63.20
  L 176.20 66.62
  A 0.39 0.39 0.0 0 0 176.60 67.01
  L 180.04 66.89
  A 0.39 0.39 0.0 0 1 180.44 67.27
  L 180.45 70.88
  A 0.39 0.39 0.0 0 1 180.06 71.27
  L 176.59 71.25
  A 0.39 0.39 0.0 0 0 176.19 71.65
  Z"
/>
</svg>
